<svg width="20" height="20" viewBox="0 0 20 20" fill="none" xmlns="http://www.w3.org/2000/svg">
<path d="M16.0675 16.2198C16.1256 16.2895 16.1717 16.3722 16.2031 16.4632C16.2345 16.5543 16.2507 16.6519 16.2507 16.7504C16.2507 16.849 16.2345 16.9465 16.2031 17.0376C16.1717 17.1286 16.1256 17.2114 16.0675 17.281C16.0095 17.3507 15.9405 17.406 15.8647 17.4437C15.7888 17.4814 15.7075 17.5008 15.6253 17.5008C15.5432 17.5008 15.4619 17.4814 15.386 17.4437C15.3102 17.406 15.2412 17.3507 15.1832 17.281L10.0003 11.0607L4.81753 17.281C4.70026 17.4218 4.5412 17.5008 4.37535 17.5008C4.20949 17.5008 4.05044 17.4218 3.93316 17.281C3.81588 17.1403 3.75 16.9494 3.75 16.7504C3.75 16.5514 3.81588 16.3605 3.93316 16.2198L9.11675 10.0004L3.93316 3.78104C3.81588 3.64031 3.75 3.44944 3.75 3.25042C3.75 3.05139 3.81588 2.86052 3.93316 2.71979C4.05044 2.57906 4.20949 2.5 4.37535 2.5C4.5412 2.5 4.70026 2.57906 4.81753 2.71979L10.0003 8.9401L15.1832 2.71979C15.3004 2.57906 15.4595 2.5 15.6253 2.5C15.7912 2.5 15.9503 2.57906 16.0675 2.71979C16.1848 2.86052 16.2507 3.05139 16.2507 3.25042C16.2507 3.44944 16.1848 3.64031 16.0675 3.78104L10.8839 10.0004L16.0675 16.2198Z" fill="var(--Color-Text-Icon-Place-Holder, #4B5563)"/>
</svg>