<svg xmlns="http://www.w3.org/2000/svg" width="58" height="68" fill="none" viewBox="0 0 58 68">
  <g clip-path="url(#a)">
    <path fill="#CFD0CF" d="m28.369 19.593 22.954 37.135H5.973l22.396-37.135Zm-.002-5.183L25.75 0l5.422.035-2.805 14.376Zm-10.558 4.391L5.87 11.248 9.295 7.58l8.514 11.221Zm-3.164 8.909L0 29.088l.5-5.376 14.145 3.998Zm24.175-8.805 12.536-7.657-3.64-4.003-8.896 11.66Zm3.926 8.591 14.44 1.56-.5-5.376-13.94 3.816Z"/>
    <path fill="#434E7E" d="M8.567 66.465 6.31 63.422v3.043H4.676v-6.89H6.31v3.023l2.237-3.023h1.922l-2.6 3.376 2.696 3.514H8.567Zm6.949-1.217H13.01l-.401 1.217h-1.712l2.429-6.89h1.892l2.429 6.89h-1.73l-.402-1.217Zm-.42-1.296-.833-2.522-.822 2.522h1.654Zm8.405-2.159c0 .4-.09.766-.268 1.1a2.002 2.002 0 0 1-.822.794c-.37.203-.828.305-1.376.305H20.02v2.473h-1.634v-6.89h2.648c.535 0 .988.095 1.357.285.37.19.647.451.832.785.185.334.277.716.277 1.148Zm-2.59.864c.312 0 .544-.075.697-.226.153-.15.23-.363.23-.638s-.077-.487-.23-.638c-.153-.15-.385-.225-.698-.225h-.889v1.727h.89Zm5.075-3.082v6.89h-1.634v-6.89h1.634Zm6.014 0v1.345h-1.78v5.545h-1.634V60.92h-1.778v-1.345h5.19Zm8.42 0v6.89h-1.634v-4.132l-1.501 4.132h-1.32l-1.51-4.142v4.142H32.82v-6.89h1.931l1.884 4.77 1.864-4.77h1.921Zm5.354 5.673h-2.505l-.402 1.217h-1.71l2.428-6.89h1.892l2.428 6.89h-1.73l-.401-1.217Zm-.421-1.296-.832-2.522-.822 2.522h1.654Zm5.719 2.582c-.49 0-.93-.082-1.319-.246a2.19 2.19 0 0 1-.937-.726c-.23-.32-.35-.707-.363-1.158h1.74c.026.255.111.451.258.589.147.13.338.196.574.196.242 0 .433-.056.573-.167a.595.595 0 0 0 .21-.48.565.565 0 0 0-.172-.423 1.275 1.275 0 0 0-.41-.275 6.145 6.145 0 0 0-.689-.245 7.416 7.416 0 0 1-1.061-.412 1.974 1.974 0 0 1-.707-.609c-.198-.268-.297-.618-.297-1.05 0-.64.227-1.142.679-1.501.452-.367 1.042-.55 1.768-.55.74 0 1.336.183 1.788.55.453.36.695.863.727 1.511h-1.769a.7.7 0 0 0-.239-.52.815.815 0 0 0-.564-.196.68.68 0 0 0-.478.166c-.12.105-.181.259-.181.462 0 .222.101.396.305.52s.523.258.956.402c.434.15.784.295 1.052.432.274.138.51.337.707.599.198.261.297.598.297 1.01a2.027 2.027 0 0 1-1.138 1.835c-.37.19-.806.286-1.31.286Z"/>
  </g>
  <defs>
    <clipPath id="a">
      <path fill="#fff" d="M0 0h57.186v68H0z"/>
    </clipPath>
  </defs>
</svg>
