<svg width="16" height="16" viewBox="0 0 16 16" fill="none" xmlns="http://www.w3.org/2000/svg">
<path d="M13.1512 4.59188L6.589 12.45C6.53184 12.5186 6.46393 12.5731 6.38915 12.6103C6.31437 12.6475 6.2342 12.6666 6.15323 12.6666C6.07226 12.6666 5.99209 12.6475 5.91731 12.6103C5.84253 12.5731 5.77462 12.5186 5.71746 12.45L2.84652 9.01206C2.78929 8.94353 2.7439 8.86217 2.71293 8.77264C2.68196 8.68311 2.66602 8.58714 2.66602 8.49023C2.66602 8.39332 2.68196 8.29736 2.71293 8.20782C2.7439 8.11829 2.78929 8.03693 2.84652 7.9684C2.90374 7.89988 2.97168 7.84552 3.04645 7.80843C3.12122 7.77135 3.20136 7.75226 3.28229 7.75226C3.36321 7.75226 3.44335 7.77135 3.51812 7.80843C3.59289 7.84552 3.66083 7.89988 3.71805 7.9684L6.15374 10.8851L12.2806 3.54946C12.3962 3.41106 12.553 3.33331 12.7164 3.33331C12.8799 3.33331 13.0366 3.41106 13.1522 3.54946C13.2678 3.68786 13.3327 3.87556 13.3327 4.07129C13.3327 4.26701 13.2678 4.45472 13.1522 4.59311L13.1512 4.59188Z" fill="var(--Color-Background-Input-Field, white)"/>
</svg>