<svg xmlns="http://www.w3.org/2000/svg" width="339" height="154" fill="none" viewBox="0 0 339 154">
  <path fill="#FF6584" d="M259.393 88.784a2.946 2.946 0 1 0 2.767-5.203 2.946 2.946 0 0 0-2.767 5.203Z"/>
  <path fill="#434E7E" d="M257.248 121.689a2.946 2.946 0 1 0 2.767-5.202 2.946 2.946 0 0 0-2.767 5.202Z"/>
  <path fill="#F59E0B" d="M248.398 44.203a19.56 19.56 0 0 1 9.254 15.19c.061.872.213 1.873-.499 2.528a1.618 1.618 0 0 1-2.01.202 2.126 2.126 0 0 1-.562-2.522 2.125 2.125 0 0 1 2.291-1.196c2.318.199 3.56 2.457 4.572 4.27 2.302 4.13 5.07 8.23 9.18 10.747 3.804 2.33 8.84 3.03 12.84.784.699-.39.043-1.45-.653-1.058-3.968 2.23-8.997 1.11-12.532-1.44a22.82 22.82 0 0 1-5.314-5.651 45.58 45.58 0 0 1-2.113-3.408 22.133 22.133 0 0 0-2.086-3.316c-1.368-1.649-3.716-2.826-5.817-1.82-1.961.937-2.447 3.976-.77 5.425a2.917 2.917 0 0 0 4.647-1.462c.294-1.01.082-2.264-.052-3.289a20.812 20.812 0 0 0-9.792-15.081c-.688-.41-1.27.688-.584 1.097Z"/>
  <path fill="#D6CCFB" d="M333.128 39.48a15.56 15.56 0 0 1-7.361-12.08c-.049-.694-.17-1.491.396-2.011a1.29 1.29 0 0 1 1.599-.161 1.692 1.692 0 0 1-.305 2.788 1.691 1.691 0 0 1-1.07.17c-1.843-.16-2.831-1.955-3.637-3.398-1.83-3.284-4.032-6.545-7.302-8.548-3.024-1.852-7.031-2.41-10.212-.624-.557.313-.035 1.154.519.842 3.155-1.772 7.156-.885 9.967 1.145a18.15 18.15 0 0 1 4.226 4.495 35.489 35.489 0 0 1 1.68 2.711c.474.927 1.03 1.81 1.659 2.638 1.088 1.312 2.954 2.247 4.626 1.447a2.717 2.717 0 0 0 1.277-3.252 2.726 2.726 0 0 0-.664-1.063 2.32 2.32 0 0 0-3.697 1.162 6.774 6.774 0 0 0 .042 2.616 16.559 16.559 0 0 0 7.792 11.996c.547.327 1.01-.548.465-.874Z"/>
  <path fill="#11D632" d="m320.402 68.202-2.601-1.383-4.547 8.548 2.602 1.383 4.546-8.548Z"/>
  <path fill="#FECACA" d="m281.502 39.866 2.771-.847-2.784-9.105-2.772.847 2.785 9.105Z"/>
  <path fill="#FF6584" d="m231.922 131.337.848 2.771 9.104-2.784-.847-2.772-9.105 2.785Z"/>
  <path fill="#434E7E" d="M159.363 132.387c26.585 0 48.136-21.551 48.136-48.136 0-26.585-21.551-48.136-48.136-48.136-26.585 0-48.136 21.551-48.136 48.136 0 26.585 21.551 48.136 48.136 48.136Z"/>
  <g clip-path="url(#a)">
    <path fill="#fff" d="m159.443 69.593 22.954 37.135h-45.35l22.396-37.135Zm-.001-5.182-2.618-14.41 5.422.034-2.804 14.376Zm-10.559 4.39-11.938-7.553 3.424-3.668 8.514 11.221Zm-3.164 8.909-14.645 1.378.499-5.376 14.146 3.998Zm24.176-8.805 12.535-7.657-3.64-4.002-8.895 11.659Zm3.925 8.591 14.439 1.56-.499-5.375-13.94 3.815Zm-34.179 38.969-2.256-3.042v3.042h-1.635v-6.889h1.635v3.023l2.237-3.023h1.921l-2.6 3.376 2.696 3.513h-1.998Zm6.949-1.217h-2.505l-.401 1.217h-1.711l2.428-6.889h1.893l2.428 6.889h-1.731l-.401-1.217Zm-.421-1.295-.831-2.522-.822 2.522h1.653Zm8.406-2.159c0 .399-.089.765-.267 1.099a2.01 2.01 0 0 1-.822.795c-.37.203-.829.304-1.377.304h-1.013v2.473h-1.635v-6.889h2.648c.535 0 .988.095 1.357.284.37.19.647.452.832.785.185.334.277.717.277 1.149Zm-2.59.863c.312 0 .545-.075.698-.225.152-.151.229-.363.229-.638s-.077-.488-.229-.638c-.153-.151-.386-.226-.698-.226h-.889v1.727h.889Zm5.075-3.081v6.889h-1.634v-6.889h1.634Zm6.014 0v1.344h-1.778v5.545h-1.635v-5.545h-1.778v-1.344h5.191Zm8.42 0v6.889h-1.634v-4.131l-1.501 4.131h-1.319l-1.511-4.141v4.141h-1.634v-6.889h1.931l1.883 4.769 1.864-4.769h1.921Zm5.354 5.672h-2.505l-.401 1.217h-1.712l2.429-6.889h1.892l2.429 6.889h-1.731l-.401-1.217Zm-.421-1.295-.832-2.522-.822 2.522h1.654Zm5.72 2.581c-.491 0-.931-.082-1.319-.245a2.192 2.192 0 0 1-.937-.726c-.23-.321-.351-.707-.364-1.159h1.74c.026.256.112.452.258.589a.83.83 0 0 0 .574.197c.242 0 .433-.056.573-.167a.593.593 0 0 0 .211-.481.565.565 0 0 0-.172-.422 1.293 1.293 0 0 0-.411-.275 6.028 6.028 0 0 0-.689-.245 7.431 7.431 0 0 1-1.061-.413 1.965 1.965 0 0 1-.707-.608c-.198-.268-.297-.618-.297-1.05 0-.641.227-1.142.679-1.502.453-.366 1.042-.549 1.769-.549.739 0 1.335.183 1.787.549.453.36.695.864.727 1.512h-1.769a.7.7 0 0 0-.239-.521.817.817 0 0 0-.564-.196.682.682 0 0 0-.478.167c-.121.105-.181.258-.181.461 0 .223.102.396.306.52.204.125.522.259.956.403.433.15.784.294 1.051.432.274.137.51.337.708.598.197.262.296.599.296 1.011a2.024 2.024 0 0 1-1.138 1.835c-.369.19-.806.285-1.309.285Z"/>
  </g>
  <path fill="#DADDF0" d="M127.2 48.376a1.757 1.757 0 0 1-1.705-2.16l9.062-39.919a1.76 1.76 0 0 1 2.909-.903l30.046 27.82a1.757 1.757 0 0 1 .52 1.679 1.76 1.76 0 0 1-1.189 1.293l-39.115 12.111a1.809 1.809 0 0 1-.528.079Z"/>
  <path fill="#fff" d="m151.775 19.194-18.873-3.755.298-1.311 16.687 3.317 1.888 1.75Zm14.863 13.766-36.083-7.18.297-1.317 33.895 6.74 1.891 1.757Zm-12.912 6.863-2.708.838-22.811-4.54.297-1.317 25.222 5.02Z"/>
  <path fill="#434E7E" d="M57.466 106.762a3.99 3.99 0 1 0-1.93-7.743 3.99 3.99 0 0 0 1.93 7.743Z"/>
  <path fill="#FF6584" d="M21.988 12.206a2.85 2.85 0 1 0-1.379-5.53 2.85 2.85 0 0 0 1.38 5.53Z"/>
  <path fill="#434E7E" d="M38.398 86.842a2.85 2.85 0 1 0-1.378-5.53 2.85 2.85 0 0 0 1.378 5.53Z"/>
  <path fill="#D3FEB6" d="M53.023 131.368a2.85 2.85 0 1 0-1.38-5.531 2.85 2.85 0 0 0 1.38 5.531Z"/>
  <path fill="#11D632" d="M4.144 38.985a2.85 2.85 0 1 0-1.379-5.53 2.85 2.85 0 0 0 1.38 5.53Z"/>
  <path fill="#CCC" d="M79.561 90a15.05 15.05 0 0 1-9.537-9.81c-.195-.645-.48-1.369-.058-1.981a1.248 1.248 0 0 1 1.473-.495 1.635 1.635 0 0 1-.661 3.085c-1.773.247-3.092-1.236-4.16-2.422-2.434-2.702-5.209-5.306-8.723-6.492-3.253-1.098-7.15-.762-9.766 1.606-.457.415.215 1.095.672.682 2.595-2.349 6.56-2.37 9.646-1.062a17.555 17.555 0 0 1 4.952 3.33 35.028 35.028 0 0 1 2.167 2.195c.647.772 1.36 1.485 2.133 2.13 1.308 1.004 3.268 1.486 4.674.372a2.626 2.626 0 0 0-.35-4.2 2.246 2.246 0 0 0-3.237 1.89 6.55 6.55 0 0 0 .601 2.457 16.008 16.008 0 0 0 9.928 9.639c.586.19.835-.733.25-.923h-.004Z"/>
  <path fill="#BFDBFE" d="m10.704 70.618 2.401 1.443 4.74-7.89-2.4-1.443-4.74 7.89Z"/>
  <path fill="#D870FD" d="M10.35 137.159a3.99 3.99 0 1 0-1.93-7.743 3.99 3.99 0 0 0 1.93 7.743Z"/>
  <defs>
    <clipPath id="a">
      <path fill="#fff" d="M131.074 50h57.186v68h-57.186z"/>
    </clipPath>
  </defs>
</svg>
