<svg width="20" height="20" viewBox="0 0 20 20" fill="none" xmlns="http://www.w3.org/2000/svg">
    <path
        d="M18 10C18 10.1355 17.9462 10.2653 17.8504 10.3611C17.7547 10.4569 17.6248 10.5107 17.4894 10.5107H10.5106V17.4894C10.5106 17.6248 10.4568 17.7547 10.3611 17.8505C10.2653 17.9462 10.1354 18 10 18C9.86457 18 9.73469 17.9462 9.63892 17.8505C9.54316 17.7547 9.48936 17.6248 9.48936 17.4894V10.5107H2.51064C2.37521 10.5107 2.24533 10.4569 2.14956 10.3611C2.0538 10.2653 2 10.1355 2 10C2 9.8646 2.0538 9.73472 2.14956 9.63895C2.24533 9.54319 2.37521 9.48939 2.51064 9.48939H9.48936V2.51067C9.48936 2.37524 9.54316 2.24536 9.63892 2.14959C9.73469 2.05383 9.86457 2.00003 10 2.00003C10.1354 2.00003 10.2653 2.05383 10.3611 2.14959C10.4568 2.24536 10.5106 2.37524 10.5106 2.51067V9.48939H17.4894C17.6248 9.48939 17.7547 9.54319 17.8504 9.63895C17.9462 9.73472 18 9.8646 18 10Z"
        fill="#434E7E" />
</svg>