<svg width="20" height="20" viewBox="0 0 20 20" fill="none" xmlns="http://www.w3.org/2000/svg">
<path d="M19 11.9283V17.1646C19 17.4684 18.8793 17.7598 18.6645 17.9746C18.4497 18.1894 18.1583 18.3101 17.8545 18.3101H2.14545C1.84166 18.3101 1.55031 18.1894 1.3355 17.9746C1.12068 17.7598 1 17.4684 1 17.1646V11.9283C1 11.6245 1.12068 11.3331 1.3355 11.1183C1.55031 10.9035 1.84166 10.7828 2.14545 10.7828H6.07273C6.20292 10.7828 6.32779 10.8345 6.41985 10.9266C6.51192 11.0187 6.56364 11.1435 6.56364 11.2737C6.56364 11.4039 6.51192 11.5288 6.41985 11.6209C6.32779 11.7129 6.20292 11.7646 6.07273 11.7646H2.14545C2.10206 11.7646 2.06043 11.7819 2.02975 11.8126C1.99906 11.8433 1.98182 11.8849 1.98182 11.9283V17.1646C1.98182 17.208 1.99906 17.2497 2.02975 17.2804C2.06043 17.311 2.10206 17.3283 2.14545 17.3283H17.8545C17.8979 17.3283 17.9396 17.311 17.9703 17.2804C18.0009 17.2497 18.0182 17.208 18.0182 17.1646V11.9283C18.0182 11.8849 18.0009 11.8433 17.9703 11.8126C17.9396 11.7819 17.8979 11.7646 17.8545 11.7646H13.9273C13.7971 11.7646 13.6722 11.7129 13.5801 11.6209C13.4881 11.5288 13.4364 11.4039 13.4364 11.2737C13.4364 11.1435 13.4881 11.0187 13.5801 10.9266C13.6722 10.8345 13.7971 10.7828 13.9273 10.7828H17.8545C18.1583 10.7828 18.4497 10.9035 18.6645 11.1183C18.8793 11.3331 19 11.6245 19 11.9283ZM6.41964 7.03883L9.50909 3.95019V11.2737C9.50909 11.4039 9.56081 11.5288 9.65287 11.6209C9.74494 11.7129 9.8698 11.7646 10 11.7646C10.1302 11.7646 10.2551 11.7129 10.3471 11.6209C10.4392 11.5288 10.4909 11.4039 10.4909 11.2737V3.95019L13.5804 7.03883C13.6734 7.12554 13.7965 7.17275 13.9237 7.17051C14.0509 7.16826 14.1722 7.11674 14.2622 7.0268C14.3521 6.93686 14.4036 6.81551 14.4059 6.68833C14.4081 6.56116 14.3609 6.43807 14.2742 6.34501L10.3469 2.41774C10.2549 2.32581 10.1301 2.27417 10 2.27417C9.86991 2.27417 9.74514 2.32581 9.65309 2.41774L5.72582 6.34501C5.6391 6.43807 5.5919 6.56116 5.59414 6.68833C5.59638 6.81551 5.6479 6.93686 5.73785 7.0268C5.82779 7.11674 5.94913 7.16826 6.07631 7.17051C6.20349 7.17275 6.32658 7.12554 6.41964 7.03883ZM15.7273 14.5465C15.7273 14.3846 15.6793 14.2265 15.5894 14.0919C15.4995 13.9574 15.3717 13.8525 15.2222 13.7906C15.0727 13.7286 14.9082 13.7124 14.7495 13.744C14.5908 13.7756 14.445 13.8535 14.3305 13.9679C14.2161 14.0823 14.1382 14.2281 14.1066 14.3868C14.0751 14.5456 14.0913 14.7101 14.1532 14.8596C14.2151 15.0091 14.32 15.1369 14.4545 15.2268C14.5891 15.3167 14.7473 15.3646 14.9091 15.3646C15.1261 15.3646 15.3342 15.2784 15.4876 15.125C15.6411 14.9716 15.7273 14.7635 15.7273 14.5465Z" fill="var(--Color-Text-Icon-Place-Holder, #4B5563)"/>
</svg>