<svg xmlns="http://www.w3.org/2000/svg" width="20" height="20" fill="none" viewBox="0 0 20 20">
  <path fill="#434E7E" d="m16.386 6.652-3.04-3.04a.954.954 0 0 0-1.347 0L3.61 12.001a.949.949 0 0 0-.279.673v3.04a.952.952 0 0 0 .952.953h3.04a.948.948 0 0 0 .674-.28L16.386 8a.952.952 0 0 0 0-1.347ZM7.42 15.81a.136.136 0 0 1-.096.04h-3.04a.136.136 0 0 1-.136-.136v-3.04c0-.036.015-.07.04-.095l6.082-6.083 3.232 3.232L7.42 15.81Zm8.388-8.388L14.08 9.151l-3.232-3.232 1.728-1.73a.135.135 0 0 1 .149-.029.135.135 0 0 1 .044.03l3.04 3.04a.134.134 0 0 1 .04.096.135.135 0 0 1-.04.096Z"/>
</svg>
