<svg width="16" height="18" viewBox="0 0 16 18" fill="none" xmlns="http://www.w3.org/2000/svg">
<path d="M15.3333 2.76923H12V2.07692C12 1.52609 11.7893 0.997815 11.4142 0.608317C11.0391 0.218818 10.5304 0 10 0H6C5.46957 0 4.96086 0.218818 4.58579 0.608317C4.21071 0.997815 4 1.52609 4 2.07692V2.76923H0.666667C0.489856 2.76923 0.320287 2.84217 0.195262 2.972C0.070238 3.10184 0 3.27793 0 3.46154C0 3.64515 0.070238 3.82124 0.195262 3.95107C0.320287 4.08091 0.489856 4.15385 0.666667 4.15385H1.33333V16.6154C1.33333 16.9826 1.47381 17.3348 1.72386 17.5945C1.97391 17.8541 2.31304 18 2.66667 18H13.3333C13.687 18 14.0261 17.8541 14.2761 17.5945C14.5262 17.3348 14.6667 16.9826 14.6667 16.6154V4.15385H15.3333C15.5101 4.15385 15.6797 4.08091 15.8047 3.95107C15.9298 3.82124 16 3.64515 16 3.46154C16 3.27793 15.9298 3.10184 15.8047 2.972C15.6797 2.84217 15.5101 2.76923 15.3333 2.76923ZM5.33333 2.07692C5.33333 1.89331 5.40357 1.71722 5.5286 1.58739C5.65362 1.45755 5.82319 1.38462 6 1.38462H10C10.1768 1.38462 10.3464 1.45755 10.4714 1.58739C10.5964 1.71722 10.6667 1.89331 10.6667 2.07692V2.76923H5.33333V2.07692ZM13.3333 16.6154H2.66667V4.15385H13.3333V16.6154ZM6.66667 7.61539V13.1538C6.66667 13.3375 6.59643 13.5135 6.4714 13.6434C6.34638 13.7732 6.17681 13.8462 6 13.8462C5.82319 13.8462 5.65362 13.7732 5.5286 13.6434C5.40357 13.5135 5.33333 13.3375 5.33333 13.1538V7.61539C5.33333 7.43177 5.40357 7.25568 5.5286 7.12585C5.65362 6.99602 5.82319 6.92308 6 6.92308C6.17681 6.92308 6.34638 6.99602 6.4714 7.12585C6.59643 7.25568 6.66667 7.43177 6.66667 7.61539ZM10.6667 7.61539V13.1538C10.6667 13.3375 10.5964 13.5135 10.4714 13.6434C10.3464 13.7732 10.1768 13.8462 10 13.8462C9.82319 13.8462 9.65362 13.7732 9.52859 13.6434C9.40357 13.5135 9.33333 13.3375 9.33333 13.1538V7.61539C9.33333 7.43177 9.40357 7.25568 9.52859 7.12585C9.65362 6.99602 9.82319 6.92308 10 6.92308C10.1768 6.92308 10.3464 6.99602 10.4714 7.12585C10.5964 7.25568 10.6667 7.43177 10.6667 7.61539Z" fill="var(--Color-Semantic-Error-500, #EF4444)"/>
</svg>